<?xml version="1.0" encoding="UTF-8"?>
<svg enable-background="new 0 0 198.1 47.5" version="1.1" viewBox="0 0 198.1 47.5" xml:space="preserve" xmlns="http://www.w3.org/2000/svg">
<style type="text/css">
	.st0{fill:#FFFFFF;}
</style>
<title>db_logo_white</title>
<path d="m14.6 0"/>
<path class="st0" d="m14.3 46.7h-3.6v-1.5h-0.1c-1 1.2-2.5 1.9-4 1.9-4.2 0-6.6-3.4-6.6-7-0.1-3.6 2.7-6.7 6.3-6.8h0.2c1.6 0.1 3 0.7 4.1 1.8v-1.4h3.6l0.1 13zm-3.5-6.5c0-1.9-1.5-3.4-3.4-3.4s-3.5 1.5-3.6 3.5c-0.1 1.9 1.4 3.5 3.2 3.6 2.1-0.1 3.8-1.7 3.8-3.7z"/>
<path class="st0" d="m18.8 33.8v7c0 1.5 0.5 3 2.6 3s2.5-1.5 2.5-3v-7l3.8-0.1v7.6c0 3.8-2.1 5.7-6.3 5.7s-6.3-2-6.3-5.7v-7.6l3.7 0.1z"/>
<path class="st0" d="m38.6 45.4c-1 1.1-2.4 1.7-3.9 1.6-4.2 0-6.5-3.5-6.5-7-0.2-3.6 2.6-6.6 6.2-6.7h0.3c1.5 0 3 0.6 4.1 1.7h0.1v-10.9h3.7v22.6h-3.9v-1.3zm0.4-5.3c0-1.8-1.5-3.4-3.3-3.4h-0.1c-1.9 0-3.5 1.5-3.5 3.3v0.1c0 2 1.6 3.6 3.6 3.6 1.9-0.1 3.3-1.6 3.3-3.5v-0.1z"/>
<path class="st0" d="m47.6 28.5c0 1.2-1 2.3-2.2 2.3s-2.3-1-2.3-2.2 1-2.3 2.2-2.3c1.3 0 2.3 1 2.3 2.2zm-0.3 18.3h-3.8v-13h3.8v13z"/>
<path class="st0" d="m62.1 40.2c0 4-2.9 6.9-7.1 6.9-3.6 0.2-6.8-2.5-7-6.2v-0.7c-0.1-3.7 2.9-6.8 6.7-6.9h0.3c4.2 0 7.1 2.9 7.1 6.9zm-10.5 0c0.1 1.9 1.6 3.5 3.6 3.5 1.9-0.1 3.3-1.6 3.3-3.5 0.1-1.9-1.3-3.5-3.2-3.7s-3.5 1.3-3.7 3.2v0.5z"/>
<path class="st0" d="m66.8 46.8h-3.6v-10h-1.5v-2.9h1.5v-4.3h3.6v4.3h2.3v2.9h-2.3v10z"/>
<path class="st0" d="m72.6 41.2c0 1.6 1.3 2.9 2.9 2.9h0.3c1.4 0 2.6-0.7 3.4-1.9l2.6 1.6c-1.4 2.4-3.2 3.3-6.1 3.3-3.5 0.2-6.6-2.5-6.8-6v-0.8c0-3.9 2.2-7 6.6-7s6.4 3.1 6.4 7v0.9h-9.3zm5.7-2.2c0.1-1.5-1-2.9-2.5-3h-0.3c-2 0-2.8 1.6-3 3h5.8z"/>
<path class="st0" d="m92.6 37.7c-0.8-0.7-1.8-1.1-2.8-1-1.9 0.1-3.5 1.7-3.4 3.6s1.7 3.5 3.6 3.4c1 0.1 2-0.3 2.7-1v3.6c-3.4 1.7-7.5 0.3-9.2-3.1s-0.3-7.5 3.1-9.2c0.9-0.5 2-0.7 3-0.7 1.1 0 2.1 0.3 3.1 0.8l-0.1 3.6z"/>
<path class="st0" d="m96.7 24.1v11.3h0.1c1-1.2 2.4-1.9 4-2.1 3.7 0 4.9 2.3 4.9 5.4v8.1h-3.8v-6.4c0-1.6-0.1-3.6-2.4-3.6s-2.8 2.5-2.8 4v6h-3.6v-22.7h3.6z"/>
<path class="st0" d="m110.2 35.3c1-1.1 2.4-1.7 3.8-1.7 3.8 0 4.9 2.2 4.9 5.2v8h-3.8v-6.3c0-1.6-0.1-3.6-2.3-3.6s-2.6 2.4-2.6 3.9v6h-3.7v-13h3.8l-0.1 1.5z"/>
<path class="st0" d="m124 28.6c0 1.2-1 2.3-2.2 2.3s-2.3-1-2.3-2.2 1-2.3 2.2-2.3c1.3 0 2.3 1 2.3 2.2zm-0.4 18.2h-3.8v-13h3.8v13z"/>
<path class="st0" d="m128.2 38.8l4.6-4.9h4.9l-6.2 5.9 6.2 6.9h-4.7l-4.8-5.6h-0.1v5.7h-3.6v-22.7h3.6v14.7z"/>
<path class="st0" d="m10.7 21.3c-1.1 1.1-2.6 1.7-4.1 1.7-4.2 0-6.6-3.2-6.6-6.8s2.4-7 6.5-7c1.5 0 3 0.6 4.1 1.7h0.1v-10.9h3.9v22.9h-3.9v-1.6zm0.2-5.1c0.1-2-1.4-3.6-3.4-3.7-2 0.1-3.6 1.7-3.7 3.7 0.1 2 1.7 3.5 3.7 3.5 1.8 0 3.3-1.5 3.3-3.3 0.1 0 0.1-0.1 0.1-0.2z"/>
<path class="st0" d="m29.5 19.8c-2 1.5-4.1 3.1-6.2 3.1-3.2-0.1-5.5-2.1-5.5-5.4 0-2.3 1.4-4 3.3-5.3l1.4-0.9c-1-1.3-1.5-2.8-1.5-4.4 0-3 2.4-4.9 5.4-4.9s5.2 1.6 5.1 5c0 2.2-1.7 3.8-3.4 5l2.4 3 2.6-2.1 2.3 2.8-2.8 2.1 4 5h-4.5l-2.6-3zm-4.7-5.7c-1.1 0.8-3.3 1.9-3.3 3.4 0 1.3 1.4 1.7 2 1.6 1.3-0.4 2.6-1.1 3.6-2l-2.3-3zm1-4.9l0.9-0.7c0.7-0.6 1.3-0.8 1.3-1.7 0-0.8-0.6-1.4-1.4-1.5-0.9 0-1.6 0.7-1.8 1.5 0 0.6 0.1 1.1 0.4 1.6l0.6 0.8z"/>
<path class="st0" d="m38.7 0h3.6v11.1c1.1-1.1 2.6-1.7 4.2-1.8 3.6 0.1 6.5 3 6.5 6.7v0.2c0 3.6-2 6.8-6.2 6.8-1.7 0.1-3.3-0.6-4.4-1.9h-0.1v1.8h-3.6v-22.9zm10.4 16.3c0-1.9-1.5-3.4-3.4-3.4s-3.5 1.5-3.5 3.4 1.5 3.4 3.5 3.4c1.9 0 3.4-1.5 3.4-3.4z"/>
<rect class="st0" x="143.9" y="2" width="21.6" height="21.5"/>
<rect class="st0" x="167.8" y="2" width="21.6" height="21.5"/>
<rect class="st0" x="167.8" y="25.7" width="21.6" height="21.2"/>
<ellipse class="st0" cx="154.6" cy="36.3" rx="11" ry="10.8"/>
</svg>
