<svg id="Capa_1" data-name="Capa 1" xmlns="http://www.w3.org/2000/svg" viewBox="0 0 55 55"><defs><style>.cls-1{fill:#fff;}</style></defs><path class="cls-1" d="M49,0a6,6,0,0,0-6,6,5.9,5.9,0,0,0,.73,2.86L33.9,18.69a7.95,7.95,0,0,0-9.8,0L16.43,11A4.05,4.05,0,1,0,15,12.43l7.67,7.67a7.95,7.95,0,0,0,0,9.8L10,42.56A6,6,0,1,0,12,47a5.9,5.9,0,0,0-.73-2.86L24.1,31.31A7.94,7.94,0,0,0,28,32.93V43.09a6,6,0,1,0,2,0V32.93a7.94,7.94,0,0,0,3.9-1.62L41.57,39A4.05,4.05,0,1,0,43,37.57L35.31,29.9a7.95,7.95,0,0,0,0-9.8L45,10.44A6,6,0,1,0,49,0ZM11,9a2,2,0,1,1,2,2A2,2,0,0,1,11,9ZM6,51a4,4,0,1,1,4-4A4,4,0,0,1,6,51Zm27-2a4,4,0,1,1-4-4A4,4,0,0,1,33,49ZM29,31a6,6,0,1,1,6-6A6,6,0,0,1,29,31ZM47,41a2,2,0,1,1-2-2A2,2,0,0,1,47,41Zm2-31a4,4,0,1,1,4-4A4,4,0,0,1,49,10Z"/></svg>